<svg xmlns="http://www.w3.org/2000/svg" xmlns:xlink="http://www.w3.org/1999/xlink" width="500" zoomAndPan="magnify" viewBox="0 0 375 374.999991" height="500" preserveAspectRatio="xMidYMid meet" version="1.0"><defs><g/><clipPath id="1d09c290bd"><path d="M 301.074219 199.980469 L 315.324219 199.980469 L 315.324219 214.230469 L 301.074219 214.230469 Z M 301.074219 199.980469 " clip-rule="nonzero"/></clipPath><clipPath id="8224869766"><path d="M 301.074219 176.871094 L 315.324219 176.871094 L 315.324219 191.121094 L 301.074219 191.121094 Z M 301.074219 176.871094 " clip-rule="nonzero"/></clipPath></defs><g fill="#06725b" fill-opacity="1"><g transform="translate(57.457984, 212.624986)"><g><path d="M 14.859375 -19.953125 L 19.21875 -25.515625 L 29.5 -36.671875 L 40.78125 -36.671875 L 26.21875 -20.765625 L 41.671875 0 L 30.109375 0 L 19.546875 -14.859375 L 15.25 -11.421875 L 15.25 0 L 5.25 0 L 5.25 -51.046875 L 15.25 -51.046875 L 15.25 -28.28125 L 14.734375 -19.953125 Z M 14.859375 -19.953125 "/></g></g></g><g fill="#06725b" fill-opacity="1"><g transform="translate(99.119683, 212.624986)"><g><path d="M 13.21875 -18.40625 C 13.21875 -14.769531 13.8125 -12.019531 15 -10.15625 C 16.195312 -8.300781 18.140625 -7.375 20.828125 -7.375 C 23.492188 -7.375 25.410156 -8.296875 26.578125 -10.140625 C 27.753906 -11.992188 28.34375 -14.75 28.34375 -18.40625 C 28.34375 -22.03125 27.75 -24.75 26.5625 -26.5625 C 25.382812 -28.382812 23.453125 -29.296875 20.765625 -29.296875 C 18.097656 -29.296875 16.171875 -28.394531 14.984375 -26.59375 C 13.804688 -24.789062 13.21875 -22.0625 13.21875 -18.40625 Z M 38.578125 -18.40625 C 38.578125 -12.4375 37 -7.765625 33.84375 -4.390625 C 30.695312 -1.023438 26.316406 0.65625 20.703125 0.65625 C 17.179688 0.65625 14.070312 -0.113281 11.375 -1.65625 C 8.6875 -3.195312 6.617188 -5.410156 5.171875 -8.296875 C 3.734375 -11.179688 3.015625 -14.550781 3.015625 -18.40625 C 3.015625 -24.394531 4.578125 -29.050781 7.703125 -32.375 C 10.835938 -35.695312 15.234375 -37.359375 20.890625 -37.359375 C 24.410156 -37.359375 27.515625 -36.59375 30.203125 -35.0625 C 32.898438 -33.539062 34.96875 -31.34375 36.40625 -28.46875 C 37.851562 -25.601562 38.578125 -22.25 38.578125 -18.40625 Z M 38.578125 -18.40625 "/></g></g></g><g fill="#06725b" fill-opacity="1"><g transform="translate(140.715772, 212.624986)"><g><path d="M 16.859375 0.65625 C 12.554688 0.65625 9.171875 -1.015625 6.703125 -4.359375 C 4.242188 -7.703125 3.015625 -12.335938 3.015625 -18.265625 C 3.015625 -24.285156 4.265625 -28.972656 6.765625 -32.328125 C 9.273438 -35.679688 12.726562 -37.359375 17.125 -37.359375 C 21.738281 -37.359375 25.257812 -35.566406 27.6875 -31.984375 L 28.015625 -31.984375 C 27.515625 -34.722656 27.265625 -37.160156 27.265625 -39.296875 L 27.265625 -51.046875 L 37.296875 -51.046875 L 37.296875 0 L 29.625 0 L 27.6875 -4.75 L 27.265625 -4.75 C 24.984375 -1.144531 21.515625 0.65625 16.859375 0.65625 Z M 20.375 -7.3125 C 22.9375 -7.3125 24.8125 -8.054688 26 -9.546875 C 27.1875 -11.035156 27.835938 -13.5625 27.953125 -17.125 L 27.953125 -18.203125 C 27.953125 -22.140625 27.34375 -24.960938 26.125 -26.671875 C 24.914062 -28.378906 22.941406 -29.234375 20.203125 -29.234375 C 17.972656 -29.234375 16.238281 -28.285156 15 -26.390625 C 13.769531 -24.503906 13.15625 -21.753906 13.15625 -18.140625 C 13.15625 -14.535156 13.773438 -11.828125 15.015625 -10.015625 C 16.265625 -8.210938 18.050781 -7.3125 20.375 -7.3125 Z M 20.375 -7.3125 "/></g></g></g><g fill="#06725b" fill-opacity="1"><g transform="translate(183.230387, 212.624986)"><g><path d="M 28.546875 0 L 26.609375 -4.984375 L 26.34375 -4.984375 C 24.65625 -2.859375 22.921875 -1.382812 21.140625 -0.5625 C 19.359375 0.25 17.035156 0.65625 14.171875 0.65625 C 10.648438 0.65625 7.878906 -0.347656 5.859375 -2.359375 C 3.835938 -4.367188 2.828125 -7.234375 2.828125 -10.953125 C 2.828125 -14.847656 4.1875 -17.71875 6.90625 -19.5625 C 9.625 -21.414062 13.726562 -22.441406 19.21875 -22.640625 L 25.59375 -22.828125 L 25.59375 -24.4375 C 25.59375 -28.15625 23.6875 -30.015625 19.875 -30.015625 C 16.945312 -30.015625 13.503906 -29.128906 9.546875 -27.359375 L 6.234375 -34.125 C 10.453125 -36.332031 15.132812 -37.4375 20.28125 -37.4375 C 25.195312 -37.4375 28.96875 -36.363281 31.59375 -34.21875 C 34.21875 -32.070312 35.53125 -28.8125 35.53125 -24.4375 L 35.53125 0 Z M 25.59375 -17 L 21.71875 -16.859375 C 18.8125 -16.773438 16.644531 -16.25 15.21875 -15.28125 C 13.800781 -14.320312 13.09375 -12.859375 13.09375 -10.890625 C 13.09375 -8.066406 14.707031 -6.65625 17.9375 -6.65625 C 20.257812 -6.65625 22.113281 -7.320312 23.5 -8.65625 C 24.894531 -9.988281 25.59375 -11.757812 25.59375 -13.96875 Z M 25.59375 -17 "/></g></g></g><g fill="#06725b" fill-opacity="1"><g transform="translate(223.809543, 212.624986)"><g><path d="M 20.703125 -7.3125 C 22.453125 -7.3125 24.550781 -7.695312 27 -8.46875 L 27 -1.015625 C 24.507812 0.0976562 21.445312 0.65625 17.8125 0.65625 C 13.8125 0.65625 10.894531 -0.351562 9.0625 -2.375 C 7.238281 -4.394531 6.328125 -7.429688 6.328125 -11.484375 L 6.328125 -29.171875 L 1.546875 -29.171875 L 1.546875 -33.390625 L 7.046875 -36.75 L 9.9375 -44.484375 L 16.34375 -44.484375 L 16.34375 -36.671875 L 26.609375 -36.671875 L 26.609375 -29.171875 L 16.34375 -29.171875 L 16.34375 -11.484375 C 16.34375 -10.054688 16.738281 -9.003906 17.53125 -8.328125 C 18.332031 -7.648438 19.390625 -7.3125 20.703125 -7.3125 Z M 20.703125 -7.3125 "/></g></g></g><g fill="#06725b" fill-opacity="1"><g transform="translate(252.972726, 212.624986)"><g><path d="M 28.546875 0 L 26.609375 -4.984375 L 26.34375 -4.984375 C 24.65625 -2.859375 22.921875 -1.382812 21.140625 -0.5625 C 19.359375 0.25 17.035156 0.65625 14.171875 0.65625 C 10.648438 0.65625 7.878906 -0.347656 5.859375 -2.359375 C 3.835938 -4.367188 2.828125 -7.234375 2.828125 -10.953125 C 2.828125 -14.847656 4.1875 -17.71875 6.90625 -19.5625 C 9.625 -21.414062 13.726562 -22.441406 19.21875 -22.640625 L 25.59375 -22.828125 L 25.59375 -24.4375 C 25.59375 -28.15625 23.6875 -30.015625 19.875 -30.015625 C 16.945312 -30.015625 13.503906 -29.128906 9.546875 -27.359375 L 6.234375 -34.125 C 10.453125 -36.332031 15.132812 -37.4375 20.28125 -37.4375 C 25.195312 -37.4375 28.96875 -36.363281 31.59375 -34.21875 C 34.21875 -32.070312 35.53125 -28.8125 35.53125 -24.4375 L 35.53125 0 Z M 25.59375 -17 L 21.71875 -16.859375 C 18.8125 -16.773438 16.644531 -16.25 15.21875 -15.28125 C 13.800781 -14.320312 13.09375 -12.859375 13.09375 -10.890625 C 13.09375 -8.066406 14.707031 -6.65625 17.9375 -6.65625 C 20.257812 -6.65625 22.113281 -7.320312 23.5 -8.65625 C 24.894531 -9.988281 25.59375 -11.757812 25.59375 -13.96875 Z M 25.59375 -17 "/></g></g></g><g clip-path="url(#1d09c290bd)"><path fill="#06725b" d="M 301.074219 207.125 C 301.074219 205.144531 301.980469 203.371094 303.277344 202.074219 C 304.570312 200.777344 306.347656 199.980469 308.328125 199.980469 C 310.304688 199.980469 312.074219 200.78125 313.371094 202.078125 C 314.667969 203.375 315.449219 205.144531 315.449219 207.125 C 315.449219 209.105469 314.75 210.957031 313.453125 212.257812 C 312.15625 213.558594 310.300781 214.351562 308.320312 214.351562 C 306.34375 214.351562 304.644531 213.394531 303.347656 212.097656 C 302.050781 210.800781 301.074219 209.105469 301.074219 207.125 Z M 301.074219 207.125 " fill-opacity="1" fill-rule="nonzero"/></g><g clip-path="url(#8224869766)"><path fill="#06725b" d="M 301.074219 184.015625 C 301.074219 182.035156 301.980469 180.261719 303.277344 178.964844 C 304.570312 177.667969 306.347656 176.871094 308.328125 176.871094 C 310.304688 176.871094 312.074219 177.671875 313.371094 178.96875 C 314.667969 180.265625 315.449219 182.035156 315.449219 184.015625 C 315.449219 185.992188 314.75 187.84375 313.453125 189.148438 C 312.15625 190.449219 310.300781 191.238281 308.320312 191.238281 C 306.34375 191.238281 304.644531 190.285156 303.347656 188.988281 C 302.050781 187.691406 301.074219 185.992188 301.074219 184.015625 Z M 301.074219 184.015625 " fill-opacity="1" fill-rule="nonzero"/></g></svg>